<svg width="47" height="48" viewBox="0 0 47 48" fill="none" xmlns="http://www.w3.org/2000/svg">
<path d="M23.4999 0.75C10.6562 0.75 0.249924 11.1562 0.249924 24C0.249924 36.8438 10.6562 47.25 23.4999 47.25C36.3437 47.25 46.7499 36.8438 46.7499 24C46.7499 11.1562 36.3437 0.75 23.4999 0.75ZM23.4999 42.75C13.0937 42.75 4.74992 34.4062 4.74992 24C4.74992 13.6875 13.0937 5.25 23.4999 5.25C33.8124 5.25 42.2499 13.6875 42.2499 24C42.2499 34.4062 33.8124 42.75 23.4999 42.75ZM29.2187 33C29.7812 33.375 30.4374 33.2812 30.8124 32.7188L32.5937 30.375C32.9687 29.8125 32.8749 29.1562 32.3124 28.7812L26.1249 24.1875V10.875C26.1249 10.3125 25.5624 9.75 24.9999 9.75H21.9999C21.3437 9.75 20.8749 10.3125 20.8749 10.875V26.3438C20.8749 26.625 20.9687 27 21.2499 27.1875L29.2187 33Z" fill="#F7654A"/>
</svg>
