<svg width="49" height="36" viewBox="0 0 49 36" fill="none" xmlns="http://www.w3.org/2000/svg">
<path d="M43.9999 0H4.99994C2.46869 0 0.499939 2.0625 0.499939 4.5V31.5C0.499939 34.0312 2.46869 36 4.99994 36H43.9999C46.4374 36 48.4999 34.0312 48.4999 31.5V4.5C48.4999 2.0625 46.4374 0 43.9999 0ZM43.9999 4.5V8.34375C41.8437 10.125 38.4687 12.75 31.3437 18.375C29.7499 19.5938 26.6562 22.5938 24.4999 22.5C22.2499 22.5938 19.1562 19.5938 17.5624 18.375C10.4374 12.75 7.06244 10.125 4.99994 8.34375V4.5H43.9999ZM4.99994 31.5V14.1562C7.06244 15.8438 10.1562 18.2812 14.7499 21.9375C16.8124 23.5312 20.4687 27.0938 24.4999 27C28.4374 27.0938 31.9999 23.5312 34.1562 21.9375C38.7499 18.2812 41.8437 15.8438 43.9999 14.1562V31.5H4.99994Z" fill="#F7654A"/>
</svg>
