<svg width="49" height="48" viewBox="0 0 49 48" fill="none" xmlns="http://www.w3.org/2000/svg">
<path d="M45.125 2.15645L36.3125 0.1877C34.25 -0.28105 32.1875 0.7502 31.4375 2.6252L27.3125 12.1877C26.5625 13.8752 27.0312 15.9377 28.5312 17.1565L32.2812 20.2502C29.6562 25.1252 25.5312 29.1565 20.6562 31.8752L17.5625 28.1252C16.3437 26.6252 14.2812 26.1565 12.5937 26.9065L3.03122 30.9377C1.15622 31.7815 0.124971 33.8439 0.593721 35.9064L2.56247 44.7189C3.03122 46.6877 4.81247 48.0002 6.78122 48.0002C29.75 48.0002 48.5 29.4377 48.5 6.3752C48.5 4.40645 47.0937 2.6252 45.125 2.15645ZM6.96872 43.5002L4.99997 35.0627L14.1875 31.1252L19.4375 37.5002C28.7187 33.0939 33.5 28.3127 37.9062 19.0315L31.5312 13.7815L35.4687 4.59395L44 6.5627C43.9062 26.9065 27.3125 43.4064 6.96872 43.5002Z" fill="#F7654A"/>
</svg>
